<svg width="43" height="9" viewBox="0 0 43 9" fill="none" xmlns="http://www.w3.org/2000/svg">
<path d="M37.6709 2.00122L39.0278 5.81041H36.272L37.6709 2.00122ZM36.2177 0.518037L33.0906 8.64803H35.2987L35.7934 7.21148H39.494L39.9621 8.64803H42.3592L39.2089 0.516985L36.2177 0.518037ZM29.9396 8.65105H32.1799V0.51554L29.9392 0.515014L29.9396 8.65105ZM14.3873 0.515014L12.5182 6.96304L10.7277 0.51554L8.31052 0.515014L10.8677 8.65105H14.0951L16.6729 0.515014H14.3873ZM23.4427 2.28659H24.4056C25.8025 2.28659 26.7059 2.9301 26.7059 4.60011C26.7059 6.27052 25.8025 6.91416 24.4056 6.91416H23.4427V2.28659ZM21.2213 0.515014V8.65105H24.8532C26.7882 8.65105 27.4201 8.32101 28.1033 7.58054C28.5859 7.06066 28.898 5.91972 28.898 4.6725C28.898 3.52855 28.6339 2.50888 28.1733 1.87352C27.3435 0.737183 26.1482 0.515014 24.3642 0.515014H21.2213ZM0 0.503716V8.65105H2.25922V2.46474L4.00974 2.46527C4.58937 2.46527 5.00255 2.61347 5.28167 2.91946C5.63569 3.30638 5.78025 3.93098 5.78025 5.07349V8.65105H7.96943V4.1496C7.96943 0.936886 5.97384 0.503716 4.02127 0.503716H0ZM17.6158 0.515014L17.6167 8.65105H19.8559V0.515014H17.6158Z" fill="white"/>
</svg>
