<svg width="33" height="22" viewBox="0 0 33 22" fill="none" xmlns="http://www.w3.org/2000/svg">
<path d="M4.02064 9.31533C4.02064 9.31533 6.90199 4.95301 12.6551 4.50171V2.91907C6.2828 3.44421 0.764648 8.98227 0.764648 8.98227C0.764648 8.98227 3.89004 18.2533 12.6551 19.1022V17.42C6.22288 16.5896 4.02064 9.31533 4.02064 9.31533ZM12.6551 14.0744V15.615C7.79377 14.7257 6.44438 9.54026 6.44438 9.54026C6.44438 9.54026 8.7785 6.88698 12.6551 6.4567V8.1472C12.6521 8.1472 12.6501 8.14628 12.6477 8.14628C10.613 7.89574 9.02357 9.84612 9.02357 9.84612C9.02357 9.84612 9.91445 13.1295 12.6551 14.0744ZM12.6551 0V2.91907C12.8422 2.90436 13.0292 2.89188 13.2173 2.88531C20.4619 2.63476 25.1823 8.98227 25.1823 8.98227C25.1823 8.98227 19.7608 15.7469 14.1125 15.7469C13.5949 15.7469 13.1103 15.6977 12.6551 15.6149V17.42C13.0443 17.4707 13.4479 17.5005 13.869 17.5005C19.1251 17.5005 22.9261 14.7461 26.6067 11.486C27.2169 11.9875 29.7152 13.2076 30.2287 13.7416C26.7292 16.7481 18.5734 19.1716 13.9495 19.1716C13.5039 19.1716 13.0758 19.1438 12.6551 19.1022V21.6387H32.633V0H12.6551ZM12.6551 6.4567V4.50184C12.8402 4.48858 13.0268 4.47833 13.2173 4.47215C18.4269 4.30424 21.8447 9.06597 21.8447 9.06597C21.8447 9.06597 18.1531 14.3269 14.195 14.3269C13.6254 14.3269 13.1146 14.233 12.655 14.0744V8.1472C14.6831 8.39867 15.0913 9.31796 16.3106 11.4037L19.0224 9.05729C19.0224 9.05729 17.0428 6.39324 13.7058 6.39324C13.343 6.39311 12.9959 6.41925 12.6551 6.4567Z" fill="#77B900"/>
</svg>
